<?xml version="1.0" standalone="no"?>
<!DOCTYPE svg PUBLIC "-//W3C//DTD SVG 20010904//EN"
 "http://www.w3.org/TR/2001/REC-SVG-20010904/DTD/svg10.dtd">
<svg version="1.0" xmlns="http://www.w3.org/2000/svg"
 width="1200.000000pt" height="1200.000000pt" viewBox="0 0 1200.000000 1200.000000"
 preserveAspectRatio="xMidYMid meet">

<g transform="translate(0.000000,1200.000000) scale(0.100000,-0.100000)"
fill="#fff" stroke="none">
<path d="M5399 9887 c-46 -24 -1 28 -1547 -1790 l-533 -627 -312 0 c-354 -1
-422 -9 -538 -62 -185 -87 -314 -239 -364 -433 -21 -84 -22 -515 0 -600 22
-86 86 -211 140 -273 81 -91 261 -201 331 -202 20 0 25 -18 72 -257 74 -373
508 -2584 538 -2738 14 -71 32 -157 40 -190 70 -285 272 -499 559 -596 l70
-24 2155 -3 c1617 -2 2172 0 2225 8 229 39 459 209 564 417 60 120 54 86 436
2363 52 311 112 666 133 789 l38 223 56 18 c157 48 305 175 377 321 65 134 71
170 71 444 0 212 -2 249 -21 315 -51 184 -181 338 -355 418 -119 54 -187 62
-539 62 l-314 0 -355 418 c-195 229 -654 768 -1018 1196 -543 639 -671 784
-708 803 -38 20 -57 23 -122 21 -66 -3 -82 -7 -119 -33 -72 -50 -103 -104
-107 -185 -7 -114 -8 -113 273 -440 45 -52 274 -322 510 -600 770 -906 887
-1044 947 -1112 l60 -68 -2036 0 c-1120 0 -2036 2 -2036 6 0 3 64 80 143 172
79 92 284 334 457 537 384 453 621 731 794 934 286 336 359 427 374 461 19 44
19 135 -1 181 -21 51 -71 104 -121 128 -61 30 -158 29 -217 -2z m3924 -2921
c38 -16 84 -66 95 -104 4 -15 7 -103 7 -197 0 -190 -9 -225 -69 -268 l-31 -22
-3313 -3 c-3071 -2 -3316 -1 -3349 15 -19 9 -47 34 -61 56 -26 38 -27 46 -30
203 -2 96 1 179 8 203 13 49 54 99 95 117 46 20 6600 20 6648 0z m-459 -1338
c-50 -302 -258 -1532 -384 -2278 -49 -294 -95 -551 -101 -570 -24 -74 -89
-141 -179 -184 l-45 -21 -2060 -3 c-2105 -3 -2147 -2 -2218 35 -46 23 -127
103 -149 146 -10 21 -37 127 -58 235 -21 109 -98 496 -170 862 -72 366 -157
800 -190 965 -32 165 -91 462 -130 660 -39 198 -73 370 -75 383 l-5 22 2903 0
2904 0 -43 -252z"/>
<path d="M4332 5251 c-98 -34 -165 -127 -164 -225 0 -67 239 -1618 258 -1676
17 -54 74 -116 129 -141 50 -23 142 -25 193 -3 73 30 135 110 148 191 6 38
-235 1642 -256 1709 -15 46 -74 109 -123 132 -64 31 -123 35 -185 13z"/>
<path d="M5950 5261 c-52 -11 -93 -35 -130 -77 -64 -73 -61 -23 -61 -959 0
-853 0 -854 22 -899 84 -179 354 -180 438 -1 21 44 21 50 21 900 0 703 -2 861
-14 889 -43 103 -168 169 -276 147z"/>
<path d="M7528 5256 c-75 -20 -145 -83 -168 -153 -12 -35 -260 -1645 -260
-1687 0 -43 41 -125 81 -163 46 -44 97 -63 166 -63 96 1 178 53 219 139 20 41
264 1602 265 1693 1 108 -68 201 -172 232 -61 19 -69 19 -131 2z"/>
</g>
</svg>
